<?xml version="1.0" encoding="UTF-8" standalone="no"?>
<svg width="24px" height="24px" viewBox="0 0 24 24" version="1.1" xmlns="http://www.w3.org/2000/svg" xmlns:xlink="http://www.w3.org/1999/xlink">
    <!-- Generator: sketchtool 3.8.3 (29802) - http://www.bohemiancoding.com/sketch -->
    <title>99F87110-4F5F-4286-8D12-FBCC1EE4300B</title>
    <desc>Created with sketchtool.</desc>
    <defs></defs>
    <g id="Page-9" stroke="none" stroke-width="1" fill="none" fill-rule="evenodd">
        <g id="02---Time-Period-and-CTA" transform="translate(-319.000000, -887.000000)" fill="#000000">
            <g id="Panel-1" transform="translate(0.000000, 700.000000)">
                <g id="Group-3" transform="translate(150.000000, 187.000000)">
                    <g id="icon_dummy_1" transform="translate(169.000000, 0.000000)">
                        <g id="Layer_1">
                            <g id="Group">
                                <path d="M20,24 L4,24 C1.8,24 0,22.2 0,20 L0,4 C0,1.8 1.8,0 4,0 L20,0 C22.2,0 24,1.8 24,4 L24,20 C24,22.2 22.2,24 20,24 L20,24 Z M4,2 C2.9,2 2,2.9 2,4 L2,20 C2,21.1 2.9,22 4,22 L20,22 C21.1,22 22,21.1 22,20 L22,4 C22,2.9 21.1,2 20,2 L4,2 L4,2 Z" id="Shape"></path>
                                <path d="M23,9 L1,9 C0.4,9 0,8.6 0,8 C0,7.4 0.4,7 1,7 L23,7 C23.6,7 24,7.4 24,8 C24,8.6 23.6,9 23,9 L23,9 Z" id="Shape"></path>
                                <g transform="translate(8.000000, 13.000000)" id="Shape">
                                    <path d="M4,5 C3.7,5 3.5,4.9 3.3,4.7 C2.9,4.3 2.9,3.7 3.3,3.3 L6.3,0.3 C6.7,-0.1 7.3,-0.1 7.7,0.3 C8.1,0.7 8.1,1.3 7.7,1.7 L4.7,4.7 C4.5,4.9 4.3,5 4,5 L4,5 Z"></path>
                                    <path d="M4,5 C3.7,5 3.5,4.9 3.3,4.7 L0.3,1.7 C-0.1,1.3 -0.1,0.7 0.3,0.3 C0.7,-0.1 1.3,-0.1 1.7,0.3 L4.7,3.3 C5.1,3.7 5.1,4.3 4.7,4.7 C4.5,4.9 4.3,5 4,5 L4,5 Z"></path>
                                </g>
                            </g>
                        </g>
                    </g>
                </g>
            </g>
        </g>
    </g>
</svg>