<?xml version="1.0" encoding="UTF-8" standalone="no"?>
<svg width="24px" height="18px" viewBox="0 0 24 18" version="1.1" xmlns="http://www.w3.org/2000/svg" xmlns:xlink="http://www.w3.org/1999/xlink">
    <!-- Generator: sketchtool 3.8.3 (29802) - http://www.bohemiancoding.com/sketch -->
    <title>752C6C46-010B-471D-B4F6-BBE988C07C45</title>
    <desc>Created with sketchtool.</desc>
    <defs></defs>
    <g id="Page-9" stroke="none" stroke-width="1" fill="none" fill-rule="evenodd">
        <g id="02---Time-Period-and-CTA" transform="translate(-708.000000, -890.000000)" fill="#000000">
            <g id="Panel-1" transform="translate(0.000000, 700.000000)">
                <g id="Group-3" transform="translate(150.000000, 187.000000)">
                    <g id="icon_dummy_2" transform="translate(558.000000, 3.000000)">
                        <g id="Layer_1">
                            <g id="Group">
                                <path d="M5,18 C2.2,18 0,15.8 0,13 C0,10.2 2.2,8 5,8 C7.8,8 10,10.2 10,13 C10,15.8 7.8,18 5,18 L5,18 Z M5,10 C3.3,10 2,11.3 2,13 C2,14.7 3.3,16 5,16 C6.7,16 8,14.7 8,13 C8,11.3 6.7,10 5,10 L5,10 Z" id="Shape"></path>
                                <path d="M19,18 C16.2,18 14,15.8 14,13 C14,10.2 16.2,8 19,8 C21.8,8 24,10.2 24,13 C24,15.8 21.8,18 19,18 L19,18 Z M19,10 C17.3,10 16,11.3 16,13 C16,14.7 17.3,16 19,16 C20.7,16 22,14.7 22,13 C22,11.3 20.7,10 19,10 L19,10 Z" id="Shape"></path>
                                <path d="M15.1,13.4 C14.8,13.4 14.5,13.3 14.3,13 C13.7,12.4 12.9,12 12,12 C11.1,12 10.3,12.4 9.7,13.1 C9.3,13.5 8.7,13.6 8.3,13.2 C7.9,12.8 7.8,12.2 8.2,11.8 C9.2,10.7 10.5,10 12,10 C13.5,10 14.9,10.6 15.8,11.8 C16.2,12.2 16.1,12.9 15.7,13.2 C15.5,13.3 15.3,13.4 15.1,13.4 L15.1,13.4 Z" id="Shape"></path>
                                <path d="M1,14 C0.4,14 0,13.6 0,13 C0,9.1 0.4,0 4,0 C6.2,0 7,1.8 7,3 C7,3.6 6.6,4 6,4 C5.4,4 5,3.6 5,3 C5,2.5 4.8,2 4,2 C3.1,2 2,7.1 2,13 C2,13.6 1.6,14 1,14 L1,14 Z" id="Shape"></path>
                                <path d="M23,14 C22.4,14 22,13.6 22,13 C22,5.4 20.6,2 20,2 C19.2,2 19,2.6 19,3 C19,3.5 18.5,4 18,4 L18,4 C17.5,4 17,3.6 17,3 C17,1.8 17.8,0 20,0 C23.6,0 24,9.1 24,13 C24,13.6 23.6,14 23,14 L23,14 Z" id="Shape"></path>
                            </g>
                        </g>
                    </g>
                </g>
            </g>
        </g>
    </g>
</svg>