<?xml version="1.0" encoding="UTF-8" standalone="no"?>
<svg width="36px" height="37px" viewBox="0 0 36 37" version="1.1" xmlns="http://www.w3.org/2000/svg" xmlns:xlink="http://www.w3.org/1999/xlink">
    <!-- Generator: sketchtool 3.8.3 (29802) - http://www.bohemiancoding.com/sketch -->
    <title>A2ECB28F-F691-456E-AA90-E72A2D3B9F16</title>
    <desc>Created with sketchtool.</desc>
    <defs></defs>
    <g id="Login" stroke="none" stroke-width="1" fill="none" fill-rule="evenodd">
        <g id="2-A-Login" transform="translate(-702.000000, -217.000000)" fill="#F8342D">
            <g id="Popup" transform="translate(510.000000, 166.000000)">
                <g id="account_icon" transform="translate(192.000000, 51.000000)">
                    <path d="M18,0.331707317 C15.5414522,0.331707317 13.2146426,0.799998127 11.019515,1.73658537 C8.82438181,2.6731726 6.90732457,3.96096812 5.26829268,5.6 C3.62926024,7.23903188 2.3414681,9.15608913 1.40487805,11.3512223 C0.468288,13.5463499 0,15.8731595 0,18.3317073 C0,20.7902551 0.468288,23.1170647 1.40487805,25.3121923 C2.3414681,27.5073255 3.62926024,29.4243828 5.26829268,31.0634146 C6.90732457,32.7024471 8.82438181,33.9902392 11.019515,34.9268293 C13.2146426,35.8634193 15.5414522,36.3317073 18,36.3317073 C20.4585478,36.3317073 22.7853574,35.8634193 24.980485,34.9268293 C27.1756182,33.9902392 29.0926754,32.7024471 30.7317073,31.0634146 C32.3707392,29.4243828 33.6585347,27.5073255 34.595122,25.3121923 C35.5317092,23.1170647 36,20.7902551 36,18.3317073 C36,15.8731595 35.5317092,13.5463499 34.595122,11.3512223 C33.6585347,9.15608913 32.3707392,7.23903188 30.7317073,5.6 C29.0926754,3.96096812 27.1756182,2.6731726 24.980485,1.73658537 C22.7853574,0.799998127 20.4585478,0.331707317 18,0.331707317 L18,0.331707317 Z M18,1.82439024 C20.2829381,1.82439024 22.4195047,2.26340901 24.4097561,3.14146341 C26.4000075,4.01951781 28.1560882,5.19023641 29.6780488,6.65365854 C31.1414709,8.17561912 32.3121895,9.93169982 33.1902439,11.9219512 C34.0682983,13.9122026 34.5073171,16.0487692 34.5073171,18.3317073 C34.5073171,19.326833 34.4195122,20.3073143 34.2439024,21.2731679 C34.0682927,22.2390272 33.804878,23.16097 33.4536585,24.0390244 C33.1609719,24.9170788 32.7658583,25.7658499 32.2682955,26.5853659 C31.770727,27.4048818 31.2292702,28.165848 30.6439024,28.8682927 C30.2341445,28.6926829 29.7073208,28.4878068 29.0634146,28.2536585 C28.4195084,28.0195103 27.717075,27.7561013 26.9560976,27.4634146 C26.2536529,27.2292664 25.5219531,26.9951238 24.7609756,26.7609756 C23.9999981,26.5268274 23.3268311,26.3219512 22.7414634,26.1463415 C22.6243921,26.087803 22.5512204,26.014637 22.5219484,25.9268321 C22.492682,25.8390216 22.4780488,25.5902458 22.4780488,25.1804878 C22.4780488,24.8292683 22.5365872,24.4780488 22.6536585,24.1268293 C22.7707298,23.7756098 22.9170732,23.4536623 23.0926829,23.1609756 C23.2097542,22.8682889 23.3560976,22.4585366 23.5317073,21.9317073 C23.7073171,21.404878 23.8243884,20.9073208 23.8829268,20.4390244 C24.0585366,20.2048762 24.2634128,19.8682955 24.497561,19.4292711 C24.7317092,18.9902411 24.9073189,18.3902458 25.0243902,17.6292683 C25.2,16.9268236 25.2731717,16.4146332 25.2439052,16.0926857 C25.2146332,15.7707326 25.1414615,15.4634184 25.0243902,15.1707317 C25.0243902,15.1707317 25.009757,15.1560985 24.980485,15.1268265 C24.9512186,15.09756 24.9365854,15.0829268 24.9365854,15.0829268 C24.9365854,14.9073171 24.9512186,14.4682983 24.980485,13.7658537 C25.009757,13.063409 25.0829287,12.3609812 25.2,11.6585366 C25.3170713,11.2487786 25.2878049,10.6195169 25.1121951,9.77073452 C24.9365854,8.92194654 24.5560994,8.08780862 23.9707317,7.26829268 C23.7365835,7.03414447 23.4731745,6.77073545 23.1804878,6.47804878 C22.8878011,6.18536211 22.5365872,5.95121951 22.1268293,5.77560976 C21.7170713,5.54146154 21.2487805,5.33658537 20.7219512,5.16097561 C20.195122,4.98536585 19.5804934,4.86829456 18.8780488,4.8097561 L17.3853659,4.8097561 C16.6829212,4.86829456 16.0682927,4.98536585 15.5414634,5.16097561 C15.0146341,5.33658537 14.5463433,5.54146154 14.1365854,5.77560976 C13.7268274,5.95121951 13.3756135,6.18536211 13.0829268,6.47804878 C12.7902402,6.77073545 12.5560976,7.03414447 12.3804878,7.26829268 C11.7365816,8.08780862 11.3414625,8.92194654 11.1951248,9.77073452 C11.0487814,10.6195169 11.0048762,11.2487786 11.0634146,11.6585366 C11.1804859,12.3609812 11.2682908,13.063409 11.3268293,13.7658537 C11.3853677,14.4682983 11.3853677,14.9073171 11.3268293,15.0829268 L11.3268293,15.1268265 C11.3268293,15.1560985 11.2975628,15.1707317 11.2390244,15.1707317 C11.1804859,15.4634184 11.1365863,15.7707326 11.1073143,16.0926857 C11.0780478,16.4146332 11.1219531,16.9268236 11.2390244,17.6292683 C11.4146341,18.3902458 11.6048771,18.9902411 11.8097533,19.4292711 C12.0146351,19.8682955 12.204878,20.2048762 12.3804878,20.4390244 C12.4390263,20.9073208 12.5560976,21.404878 12.7317073,21.9317073 C12.9073171,22.4585366 13.0536604,22.8682889 13.1707317,23.1609756 C13.287803,23.3951238 13.3756079,23.6878049 13.4341463,24.0390244 C13.4926848,24.3902439 13.5219512,24.7707298 13.5219512,25.1804878 C13.5219512,25.6487842 13.507318,25.9121932 13.4780516,25.9707317 C13.4487796,26.0292702 13.4048799,26.087803 13.3463415,26.1463415 C12.7024353,26.3219512 12.0000019,26.5414606 11.2390244,26.8048809 C10.4780469,27.0682955 9.71707504,27.3170713 8.95609756,27.5512195 C8.25365292,27.8439062 7.58049155,28.1073152 6.93658537,28.3414634 C6.29267918,28.5756116 5.79512195,28.7804878 5.44390244,28.9560976 C4.79999682,28.2536529 4.2439045,27.4926867 3.77560976,26.6731707 C3.30731445,25.8536548 2.89756266,24.9756116 2.54634146,24.0390244 C2.19512027,23.16097 1.93170844,22.2390272 1.75609756,21.2731679 C1.58048668,20.3073143 1.49268293,19.326833 1.49268293,18.3317073 C1.49268293,16.0487692 1.93170282,13.9122026 2.8097561,11.9219512 C3.68780937,9.93169982 4.85852909,8.17561912 6.32195122,6.65365854 C7.8439118,5.19023641 9.59999251,4.01951781 11.5902439,3.14146341 C13.5804953,2.26340901 15.7170619,1.82439024 18,1.82439024 L18,1.82439024 Z M6.49756098,30.097561 C6.90731895,29.9219512 7.41950939,29.7317083 8.03414915,29.5268265 C8.6487833,29.3219503 9.27804503,29.1024409 9.92195122,28.8682927 C10.5658574,28.6341445 11.2243856,28.4000019 11.8975638,28.1658537 C12.5707364,27.9317054 13.1999981,27.7268293 13.7853659,27.5512195 C14.429272,27.3756098 14.7951191,27.0536623 14.8829296,26.5853659 C14.9707345,26.1170694 15.0146341,25.6487842 15.0146341,25.1804878 C15.0146341,24.8292683 15.0000009,24.4195159 14.9707289,23.9512195 C14.9414625,23.4829231 14.809758,23.0146379 14.5756098,22.5463415 C14.4,22.2536548 14.2536567,21.8731745 14.1365854,21.404878 C14.0195141,20.9365816 13.9317092,20.4682964 13.8731707,20 C13.8731707,19.9414615 13.8439043,19.8682955 13.7853659,19.7804906 C13.7268274,19.6926801 13.6682946,19.6195141 13.6097561,19.5609756 C13.4926848,19.4439043 13.3463415,19.2097561 13.1707317,18.8585366 C12.995122,18.5073171 12.8487786,17.9804934 12.7317073,17.2780488 C12.614636,16.7512195 12.5560976,16.4 12.5560976,16.2243902 C12.5560976,16.0487805 12.585364,15.9024372 12.6439024,15.7853659 C12.7024409,15.7268274 12.7317073,15.6682946 12.7317073,15.6097561 L12.7317073,15.4341463 C12.8487786,15.1414597 12.8780507,14.5561032 12.8195122,13.6780488 C12.7609737,12.7999944 12.6731689,12.0390281 12.5560976,11.395122 C12.4975591,11.1609737 12.5268311,10.721955 12.6439024,10.0780488 C12.7609737,9.4341426 13.0536548,8.79024765 13.5219512,8.14634146 C13.7560994,7.91219325 14.0048752,7.67805065 14.2682899,7.44390244 C14.5317101,7.20975422 14.8390244,7.03414447 15.1902439,6.91707317 C15.4829306,6.74146341 15.8195113,6.60975891 16.1999972,6.52194841 C16.5804887,6.43414353 16.9756079,6.36097748 17.3853659,6.30243902 L18.7902439,6.30243902 C19.2585403,6.36097748 19.6829259,6.43414353 20.0634118,6.52194841 C20.4439034,6.60975891 20.8097561,6.74146341 21.1609756,6.91707317 C21.4536623,7.03414447 21.7463377,7.20975422 22.0390244,7.44390244 C22.3317111,7.67805065 22.5658537,7.91219325 22.7414634,8.14634146 C23.2682927,8.79024765 23.5756069,9.4341426 23.6634174,10.0780488 C23.7512223,10.721955 23.795122,11.1609737 23.795122,11.395122 C23.6780507,12.0390281 23.5756126,12.7999944 23.4878077,13.6780488 C23.3999972,14.5561032 23.414636,15.1414597 23.5317073,15.4341463 C23.5317073,15.4926848 23.5463405,15.5512176 23.5756069,15.6097561 C23.604879,15.6682946 23.6195122,15.7268274 23.6195122,15.7853659 C23.6780507,15.9024372 23.7219503,16.0487805 23.7512167,16.2243902 C23.7804887,16.4 23.7365835,16.7512195 23.6195122,17.2780488 C23.4439024,17.9804934 23.2682927,18.5073171 23.0926829,18.8585366 C22.9170732,19.2097561 22.7707298,19.4439043 22.6536585,19.5609756 C22.5951201,19.6195141 22.5365872,19.6926801 22.4780488,19.7804906 C22.4195103,19.8682955 22.3902439,19.9414615 22.3902439,20 C22.3902439,20.4682964 22.3170722,20.9365816 22.1707289,21.404878 C22.0243912,21.8731745 21.8634146,22.2536548 21.6878049,22.5463415 C21.5707336,22.897561 21.4243902,23.2926801 21.2487805,23.7317045 C21.0731707,24.1707345 20.9853659,24.6536585 20.9853659,25.1804878 C20.9853659,25.5902458 21.0439043,26.0292645 21.1609756,26.497561 C21.2780469,26.9658574 21.6585328,27.3170713 22.302439,27.5512195 C22.8292683,27.7268293 23.4292636,27.9170722 24.1024362,28.1219484 C24.7756144,28.3268302 25.4341426,28.5463396 26.0780488,28.7804878 C26.721955,29.014636 27.3512167,29.2341454 27.9658508,29.4390272 C28.5804906,29.6439034 29.1219475,29.8341463 29.5902439,30.0097561 C28.8292664,30.7707353 28.0097617,31.4438994 27.1317073,32.0292683 C26.2536529,32.6146371 25.3463433,33.1121932 24.4097561,33.5219512 C23.4146304,33.9317092 22.3756163,34.2536572 21.2926801,34.4878049 C20.2097495,34.7219525 19.1122026,34.8390244 18,34.8390244 C16.8877974,34.8390244 15.8048837,34.7219525 14.7512195,34.4878049 C13.6975554,34.2536572 12.6731745,33.9317092 11.6780488,33.5219512 C10.6829231,33.1121932 9.76098029,32.6292709 8.91219793,32.0731707 C8.06340995,31.5170705 7.25853846,30.8585401 6.49756098,30.097561 L6.49756098,30.097561 Z" id="Page-1"></path>
                </g>
            </g>
        </g>
    </g>
</svg>