<?xml version="1.0" encoding="UTF-8" standalone="no"?>
<svg width="20px" height="16px" viewBox="0 0 20 16" version="1.1" xmlns="http://www.w3.org/2000/svg" xmlns:xlink="http://www.w3.org/1999/xlink">
    <!-- Generator: sketchtool 3.8.3 (29802) - http://www.bohemiancoding.com/sketch -->
    <title>FA0F02EE-48E5-4E00-AD7C-E1F4FD368759</title>
    <desc>Created with sketchtool.</desc>
    <defs></defs>
    <g id="Colors-edited" stroke="none" stroke-width="1" fill="none" fill-rule="evenodd">
        <g id="3-A-Cart-Review" transform="translate(-151.000000, -101.000000)" fill="#001837">
            <g id="arrow-left" transform="translate(150.000000, 100.000000)">
                <g id="Layer_1">
                    <path d="M19.9994297,7.99867969 L4.4135579,7.99867969 L9.70659925,2.70563834 C10.0971023,2.31513529 10.0968523,1.68213034 9.70659925,1.29137729 C9.3160962,0.900874237 8.68309126,0.900874237 8.2923382,1.29137729 L1.29228352,8.29143198 C0.901780465,8.68193503 0.901780465,9.31518997 1.29203351,9.70544302 L8.2920882,16.7054977 C8.48733973,16.9007492 8.74334173,16.9985 8.99934373,16.9985 C9.25509573,16.9985 9.51109773,16.9007492 9.70659925,16.7052477 C10.0971023,16.3149947 10.0968523,15.6817397 9.70659925,15.2914867 L4.4133079,9.99869531 L19.9994297,9.99869531 C20.551684,9.99869531 20.9996875,9.55069181 20.9994375,8.9986875 C20.9994375,8.44643319 20.551684,7.99867969 19.9994297,7.99867969 L19.9994297,7.99867969 Z" id="Shape"></path>
                </g>
            </g>
        </g>
    </g>
</svg>