<?xml version="1.0" encoding="UTF-8" standalone="no"?>
<svg width="17px" height="13px" viewBox="0 0 17 13" version="1.1" xmlns="http://www.w3.org/2000/svg" xmlns:xlink="http://www.w3.org/1999/xlink">
    <!-- Generator: sketchtool 3.8.3 (29802) - http://www.bohemiancoding.com/sketch -->
    <title>997CA3D3-718A-4A68-A35F-D551F651A3D4</title>
    <desc>Created with sketchtool.</desc>
    <defs></defs>
    <g id="Colors-edited" stroke="none" stroke-width="1" fill="none" fill-rule="evenodd">
        <g id="3-B-Post-Checkout" transform="translate(-1286.000000, -104.000000)" fill="#001837">
            <g id="arrow-left" transform="translate(1286.000000, 104.000000)">
                <g id="Layer_1">
                    <path d="M15.4375444,5.687646 L2.77402363,5.687646 L7.07461973,1.3870499 C7.39190346,1.06976617 7.39170033,0.555449652 7.07461973,0.237962797 C6.757336,-0.0793209322 6.24301948,-0.0793209322 5.92553263,0.237962797 L0.237988194,5.92550723 C-0.0792955353,6.24279096 -0.0792955353,6.7573106 0.237785067,7.07439121 L5.9253295,12.7619356 C6.08397137,12.9205775 6.29197299,13 6.49997462,13 C6.70777311,13 6.91577474,12.9205775 7.07461973,12.7617325 C7.39190346,12.4446519 7.39170033,11.9301323 7.07461973,11.6130517 L2.7738205,7.31265869 L15.4375444,7.31265869 C15.8862511,7.31265869 16.2502539,6.94865585 16.2500508,6.50015234 C16.2500508,6.05144571 15.8862511,5.687646 15.4375444,5.687646 L15.4375444,5.687646 Z" id="Shape" transform="translate(8.125025, 6.500000) scale(-1, 1) translate(-8.125025, -6.500000) "></path>
                </g>
            </g>
        </g>
    </g>
</svg>