<?xml version="1.0" encoding="UTF-8" standalone="no"?>
<svg width="24px" height="24px" viewBox="0 0 24 24" version="1.1" xmlns="http://www.w3.org/2000/svg" xmlns:xlink="http://www.w3.org/1999/xlink">
    <!-- Generator: sketchtool 3.8.3 (29802) - http://www.bohemiancoding.com/sketch -->
    <title>B2CD7C0D-A3DC-48F8-9794-617F76643BC9</title>
    <desc>Created with sketchtool.</desc>
    <defs></defs>
    <g id="Colors-edited" stroke="none" stroke-width="1" fill="none" fill-rule="evenodd">
        <g id="3-B-Post-Checkout" transform="translate(-486.000000, -732.000000)" fill="#FFFFFF">
            <g id="Group-9" transform="translate(120.000000, 144.000000)">
                <g id="Group-6" transform="translate(127.000000, 575.000000)">
                    <g id="arrow-up" transform="translate(251.000000, 25.000000) rotate(-90.000000) translate(-251.000000, -25.000000) translate(239.000000, 13.000000)">
                        <path d="M12,24 C5.372583,24 0,18.627417 0,12 C0,5.372583 5.372583,0 12,0 C18.627417,0 24,5.372583 24,12 C24,18.627417 18.627417,24 12,24 L12,24 Z M12,2 C6.4771525,2 2,6.4771525 2,12 C2,17.5228475 6.4771525,22 12,22 C17.5228475,22 22,17.5228475 22,12 C22,6.4771525 17.5228475,2 12,2 L12,2 Z M15.58,10.851 L13,9.108 L13,17 C13,17.5522847 12.5522847,18 12,18 C11.4477153,18 11,17.5522847 11,17 L11,9.108 L8.42,10.851 C8.19968385,10.9964589 7.9256557,11.0351903 7.6736565,10.956489 C7.42165729,10.8777878 7.21837628,10.689989 7.12,10.445 C6.85468123,9.92088447 7.00197923,9.28203198 7.47,8.927 L11.23,6.388 C11.2444025,6.37233222 11.2612971,6.35915439 11.28,6.349 C11.3491729,6.26207692 11.433957,6.18882345 11.53,6.133 L11.53,6.133 C11.643223,6.06834399 11.7698441,6.03069985 11.9,6.023 C11.9066039,6.02429413 11.9133961,6.02429413 11.92,6.023 L11.95,6.017 C11.97,6.017 11.98,6.007 12,6.007 C12.0169954,6.00840187 12.0337727,6.01175733 12.05,6.017 L12.08,6.023 C12.0897839,6.02595967 12.0998304,6.02796897 12.11,6.029 C12.1988376,6.03275636 12.2865513,6.05029912 12.37,6.081 C12.4,6.096 12.43,6.119 12.47,6.138 C12.5373704,6.17473088 12.601004,6.21793474 12.66,6.267 C12.69,6.297 12.71,6.34 12.74,6.375 L16.53,8.934 C16.9980208,9.28903198 17.1453188,9.92788447 16.88,10.452 C16.7801835,10.695787 16.5762905,10.8819545 16.3244551,10.9592486 C16.0726197,11.0365427 15.7993941,10.9968139 15.58,10.851 L15.58,10.851 Z" transform="translate(12.000000, 12.000000) rotate(90.000000) translate(-12.000000, -12.000000) "></path>
                    </g>
                </g>
            </g>
        </g>
    </g>
</svg>