<?xml version="1.0" encoding="UTF-8" standalone="no"?>
<svg width="18px" height="18px" viewBox="0 0 18 18" version="1.1" xmlns="http://www.w3.org/2000/svg" xmlns:xlink="http://www.w3.org/1999/xlink">
    <!-- Generator: sketchtool 3.8.3 (29802) - http://www.bohemiancoding.com/sketch -->
    <title>400A4EEF-1B1C-491B-86BB-E898E4606B3C</title>
    <desc>Created with sketchtool.</desc>
    <defs></defs>
    <g id="Colors-edited" stroke="none" stroke-width="1" fill="none" fill-rule="evenodd">
        <g id="1-D-Mutual-Fund-Details" transform="translate(-1258.000000, -314.000000)" fill="#FFFFFF">
            <g id="Action-Window" transform="translate(1027.000000, 251.000000)">
                <g id="Buy-Now" transform="translate(0.000000, 48.000000)">
                    <g id="arrow-right" transform="translate(231.000000, 15.000000)">
                        <path d="M9,18 C4.02943725,18 0,13.9705627 0,9 C0,4.02943725 4.02943725,0 9,0 C13.9705627,0 18,4.02943725 18,9 C18,13.9705627 13.9705627,18 9,18 L9,18 Z M9,1.5 C4.85786438,1.5 1.5,4.85786438 1.5,9 C1.5,13.1421356 4.85786438,16.5 9,16.5 C13.1421356,16.5 16.5,13.1421356 16.5,9 C16.5,4.85786438 13.1421356,1.5 9,1.5 L9,1.5 Z M13.485,9.06075 L13.485,9.081 C13.4801913,9.1472458 13.4676048,9.21269574 13.4475,9.276 C13.4325,9.30225 13.4175,9.324 13.4025,9.351 C13.3767,9.40343976 13.3439005,9.45213437 13.305,9.49575 C13.2796526,9.51920866 13.252014,9.54006324 13.2225,9.558 L11.3025,12.402 C11.0384037,12.7523707 10.5608074,12.8624392 10.17,12.663 C9.98457476,12.5911907 9.84182964,12.4390088 9.78202117,12.2493722 C9.7222127,12.0597356 9.75182246,11.8531956 9.8625,11.688 L11.1675,9.75075 L5.25,9.75075 C4.83578644,9.75075 4.5,9.41496356 4.5,9.00075 C4.5,8.58653644 4.83578644,8.25075 5.25,8.25075 L11.1675,8.25075 L9.8625,6.31425 C9.75211429,6.14898005 9.72267125,5.94255374 9.78244951,5.75301292 C9.84222776,5.56347211 9.98477112,5.41128766 10.17,5.33925 C10.5609259,5.14077567 11.0378749,5.25069505 11.3025,5.60025 L13.2075,8.42175 C13.2197761,8.43135529 13.229981,8.44334605 13.2375,8.457 C13.3021365,8.51175581 13.3578095,8.5762859 13.4025,8.64825 L13.4025,8.64825 C13.4516422,8.73397555 13.4799051,8.83006935 13.485,8.92875 L13.485,8.94075 C13.4908432,8.94759248 13.4935622,8.95656497 13.4925,8.9655 C13.4925,8.9775 13.5,8.988 13.5,9 C13.5,9.012 13.4925,9.02325 13.4925,9.0345 C13.4935434,9.04389533 13.4908495,9.05332407 13.485,9.06075 L13.485,9.06075 Z"></path>
                    </g>
                </g>
            </g>
        </g>
    </g>
</svg>