<?xml version="1.0" encoding="UTF-8" standalone="no"?>
<svg width="20px" height="17px" viewBox="0 0 20 17" version="1.1" xmlns="http://www.w3.org/2000/svg" xmlns:xlink="http://www.w3.org/1999/xlink">
    <!-- Generator: sketchtool 39.1 (31720) - http://www.bohemiancoding.com/sketch -->
    <title>DEC4C943-E84B-4E18-BA06-C509A3DF2ADF</title>
    <desc>Created with sketchtool.</desc>
    <defs>
        <filter x="-50%" y="-50%" width="200%" height="200%" filterUnits="objectBoundingBox" id="filter-1">
            <feOffset dx="0" dy="2" in="SourceAlpha" result="shadowOffsetOuter1"></feOffset>
            <feGaussianBlur stdDeviation="2" in="shadowOffsetOuter1" result="shadowBlurOuter1"></feGaussianBlur>
            <feColorMatrix values="0 0 0 0 0.360784314   0 0 0 0 0.419607843   0 0 0 0 0.494117647  0 0 0 0.2 0" type="matrix" in="shadowBlurOuter1" result="shadowMatrixOuter1"></feColorMatrix>
            <feMerge>
                <feMergeNode in="shadowMatrixOuter1"></feMergeNode>
                <feMergeNode in="SourceGraphic"></feMergeNode>
            </feMerge>
        </filter>
    </defs>
    <g id="5-D-Transaction-History" stroke="none" stroke-width="1" fill="none" fill-rule="evenodd">
        <g id="5-D-2-Single-Item-Details" transform="translate(-438.000000, -237.000000)" fill="#1F6DD1">
            <g id="Main-Content" filter="url(#filter-1)" transform="translate(120.000000, 144.000000)">
                <g id="Top-tabs" transform="translate(293.000000, 72.000000)">
                    <g id="arrow-left" transform="translate(29.000000, 22.000000)">
                        <g id="Layer_1">
                            <path d="M11.4282455,4.57067411 L2.52203309,4.57067411 L5.54662814,1.54607905 C5.76977274,1.32293445 5.76962989,0.961217338 5.54662814,0.737929879 C5.32348354,0.514785278 4.96176643,0.514785278 4.73847897,0.737929879 L0.738447723,4.73796113 C0.515303123,4.96110573 0.515303123,5.3229657 0.738304865,5.54596744 L4.73833612,9.54599869 C4.84990842,9.65757099 4.99619527,9.71342857 5.14248213,9.71342857 C5.28862613,9.71342857 5.43491299,9.65757099 5.54662814,9.54585583 C5.76977274,9.32285409 5.76962989,8.96099412 5.54662814,8.73799238 L2.52189023,5.71354018 L11.4282455,5.71354018 C11.7438194,5.71354018 11.9998214,5.45753818 11.9996786,5.14210714 C11.9996786,4.82653325 11.7438194,4.57067411 11.4282455,4.57067411 L11.4282455,4.57067411 Z" id="Shape"></path>
                        </g>
                    </g>
                </g>
            </g>
        </g>
    </g>
</svg>