<?xml version="1.0" encoding="UTF-8" standalone="no"?>
<svg width="24px" height="24px" viewBox="0 0 24 24" version="1.1" xmlns="http://www.w3.org/2000/svg" xmlns:xlink="http://www.w3.org/1999/xlink">
    <!-- Generator: sketchtool 3.8.3 (29802) - http://www.bohemiancoding.com/sketch -->
    <title>235CB40A-7A56-459B-B24F-28709A1B0EBE</title>
    <desc>Created with sketchtool.</desc>
    <defs></defs>
    <g id="Page-9" stroke="none" stroke-width="1" fill="none" fill-rule="evenodd">
        <g id="02---Time-Period-and-CTA" transform="translate(-708.000000, -1269.000000)" fill="#001837">
            <g id="Panel-2" transform="translate(0.000000, 1156.000000)">
                <g id="Group-2" transform="translate(441.000000, 113.000000)">
                    <g id="discussions_icon" transform="translate(267.000000, 0.000000)">
                        <g id="Group">
                            <path d="M20,20 L16,20 C15.4,20 15,19.6 15,19 C15,18.4 15.4,18 16,18 L20,18 C21.1,18 22,17.1 22,16 L22,4 C22,2.9 21.1,2 20,2 L4,2 C2.9,2 2,2.9 2,4 L2,16 C2,17.1 2.9,18 4,18 L8,18 C8.6,18 9,18.4 9,19 C9,19.6 8.6,20 8,20 L4,20 C1.8,20 0,18.2 0,16 L0,4 C0,1.8 1.8,0 4,0 L20,0 C22.2,0 24,1.8 24,4 L24,16 C24,18.2 22.2,20 20,20 L20,20 Z" id="Shape"></path>
                            <path d="M12,24 C11.7,24 11.5,23.9 11.3,23.7 L7.3,19.7 C6.9,19.3 6.9,18.7 7.3,18.3 C7.7,17.9 8.3,17.9 8.7,18.3 L12,21.6 L15.3,18.3 C15.7,17.9 16.3,17.9 16.7,18.3 C17.1,18.7 17.1,19.3 16.7,19.7 L12.7,23.7 C12.5,23.9 12.3,24 12,24 L12,24 Z" id="Shape"></path>
                            <path d="M18,7 L6,7 C5.4,7 5,6.6 5,6 C5,5.4 5.4,5 6,5 L18,5 C18.6,5 19,5.4 19,6 C19,6.6 18.6,7 18,7 L18,7 Z" id="Shape"></path>
                            <path d="M13,11 L6,11 C5.4,11 5,10.6 5,10 C5,9.4 5.4,9 6,9 L13,9 C13.6,9 14,9.4 14,10 C14,10.6 13.6,11 13,11 L13,11 Z" id="Shape"></path>
                            <path d="M16,15 L6,15 C5.4,15 5,14.6 5,14 C5,13.4 5.4,13 6,13 L16,13 C16.6,13 17,13.4 17,14 C17,14.6 16.6,15 16,15 L16,15 Z" id="Shape"></path>
                        </g>
                    </g>
                </g>
            </g>
        </g>
    </g>
</svg>