<?xml version="1.0" encoding="UTF-8" standalone="no"?>
<svg width="14px" height="16px" viewBox="0 0 14 16" version="1.1" xmlns="http://www.w3.org/2000/svg" xmlns:xlink="http://www.w3.org/1999/xlink">
    <!-- Generator: sketchtool 3.8.3 (29802) - http://www.bohemiancoding.com/sketch -->
    <title>005FBA24-1C13-4363-AB71-E4BDD4BA1367</title>
    <desc>Created with sketchtool.</desc>
    <defs></defs>
    <g id="Colors-edited" stroke="none" stroke-width="1" fill="none" fill-rule="evenodd">
        <g id="1-D-Mutual-Fund-Details" transform="translate(-734.000000, -2408.000000)" fill="#379AFF">
            <g id="Management-Information" transform="translate(149.000000, 2293.000000)">
                <g id="Download-01" transform="translate(585.000000, 102.000000)">
                    <g id="Document-icon" transform="translate(0.000000, 13.000000)">
                        <g id="Layer_1">
                            <path d="M12,0 L2,0 C0.8955,0 0,0.8955 0,2 L0,14 C0,15.1045 0.8955,16 2,16 L12,16 C13.1045,16 14,15.1045 14,14 L14,2 C14,0.8955 13.1045,0 12,0 L12,0 Z M13,14 C13,14.55175 12.55175,15 12,15 L2,15 C1.44925,15 1,14.55175 1,14 L1,2 C1,1.44825 1.44925,1 2,1 L12,1 C12.55175,1 13,1.44825 13,2 L13,14 L13,14 Z M3,4 L11,4 L11,3 L3,3 L3,4 L3,4 Z M3,6 L11,6 L11,5 L3,5 L3,6 L3,6 Z M3,8 L11,8 L11,7 L3,7 L3,8 L3,8 Z M3,10 L7,10 L7,9 L3,9 L3,10 L3,10 Z" id="Shape"></path>
                        </g>
                    </g>
                </g>
            </g>
        </g>
    </g>
</svg>