<?xml version="1.0" encoding="UTF-8" standalone="no"?>
<svg width="14px" height="16px" viewBox="0 0 14 16" version="1.1" xmlns="http://www.w3.org/2000/svg" xmlns:xlink="http://www.w3.org/1999/xlink">
    <!-- Generator: sketchtool 3.8.3 (29802) - http://www.bohemiancoding.com/sketch -->
    <title>6394EF34-90A0-40FF-AE71-EDF93805B167</title>
    <desc>Created with sketchtool.</desc>
    <defs></defs>
    <g id="Colors-edited" stroke="none" stroke-width="1" fill="none" fill-rule="evenodd">
        <g id="1-C-Mutual-Funds-Details" transform="translate(-1263.000000, -664.000000)" fill="#1F6DD1">
            <g id="Action-Window" transform="translate(1028.000000, 289.000000)">
                <g id="download" transform="translate(235.000000, 375.000000)">
                    <path d="M13.3333333,4.66666667 L13.3333333,14 C13.3333333,15.1046667 12.438,16 11.3333333,16 L2,16 C0.895333333,16 0,15.1046667 0,14 L0,4.66666667 C0,3.562 0.895333333,2.66666667 2,2.66666667 L4.66666667,2.66666667 L4.66666667,4 L2,4 C1.63183333,4 1.33333333,4.2985 1.33333333,4.66666667 L1.33333333,14 C1.33333333,14.3681667 1.63183333,14.6666667 2,14.6666667 L11.3333333,14.6666667 C11.7015,14.6666667 12,14.3681667 12,14 L12,4.66666667 C12,4.2985 11.7015,4 11.3333333,4 L8.66666667,4 L8.66666667,2.66666667 L11.3333333,2.66666667 C12.438,2.66666667 13.3333333,3.562 13.3333333,4.66666667 L13.3333333,4.66666667 Z M9.80466667,7.52866667 C9.54433333,7.26833333 9.12216667,7.26833333 8.862,7.52866667 L7.33333333,9.05716667 L7.33333333,0.666833333 L7.33333333,0.666666667 C7.33333333,0.2985 7.03483333,0 6.66666667,0 C6.2985,0 6,0.2985 6,0.666666667 L6,9.05716667 L4.47133333,7.52866667 C4.211,7.26833333 3.78883333,7.26833333 3.52866667,7.52866667 C3.26833333,7.789 3.26833333,8.21116667 3.52866667,8.47133333 L6.19533333,11.138 C6.32033333,11.263 6.48983333,11.3333333 6.66666667,11.3333333 C6.8435,11.3333333 7.013,11.263 7.138,11.138 L9.80466667,8.47133333 C10.0651667,8.21116667 10.0651667,7.78883333 9.80466667,7.52866667 L9.80466667,7.52866667 Z" id="Shape"></path>
                </g>
            </g>
        </g>
    </g>
</svg>