<?xml version="1.0" encoding="UTF-8" standalone="no"?>
<svg width="16px" height="16px" viewBox="0 0 16 16" version="1.1" xmlns="http://www.w3.org/2000/svg" xmlns:xlink="http://www.w3.org/1999/xlink">
    <!-- Generator: sketchtool 3.8.3 (29802) - http://www.bohemiancoding.com/sketch -->
    <title>6B9106FA-E440-447F-A427-0426E8FBBB24</title>
    <desc>Created with sketchtool.</desc>
    <defs></defs>
    <g id="Colors-edited" stroke="none" stroke-width="1" fill="none" fill-rule="evenodd">
        <g id="1-D-Mutual-Fund-Details" transform="translate(-734.000000, -2366.000000)" fill="#379AFF">
            <g id="Management-Information" transform="translate(149.000000, 2293.000000)">
                <g id="globe" transform="translate(585.000000, 73.000000)">
                    <g id="Layer_1">
                        <path d="M8.30709091,0.00527272727 C8.20545455,0.00181818182 8.10363636,0 8,0 C7.89636364,0 7.79454545,0.00181818182 7.69290909,0.00527272727 C3.41636364,0.167272727 0,3.68545455 0,8 C0,12.3145455 3.41636364,15.8327273 7.69290909,15.9947273 C7.79454545,15.9981818 7.89636364,16 8,16 C8.10363636,16 8.20545455,15.9981818 8.30709091,15.9947273 C12.5836364,15.8327273 16,12.3145455 16,8 C16,3.68545455 12.5836364,0.167272727 8.30709091,0.00527272727 L8.30709091,0.00527272727 Z M14.5036364,7.27272727 L11.6109091,7.27272727 C11.4454545,4.83636364 10.4707273,2.89272727 9.65818182,1.66545455 C12.2418182,2.34181818 14.2054545,4.55654545 14.5036364,7.27272727 L14.5036364,7.27272727 Z M8.00181818,1.85090909 C8.71618182,2.78181818 9.94727273,4.72363636 10.1527273,7.27272727 L5.84727273,7.27272727 C6.05272727,4.73454545 7.28727273,2.78545455 8.00181818,1.85090909 L8.00181818,1.85090909 Z M10.1527273,8.72727273 C9.94727273,11.2654545 8.71454545,13.2145455 7.99818182,14.1490909 C7.28381818,13.2181818 6.05272727,11.2763636 5.84727273,8.72727273 L10.1527273,8.72727273 L10.1527273,8.72727273 Z M6.34181818,1.66545455 C5.52909091,2.89272727 4.55454545,4.83636364 4.38927273,7.27272727 L1.49636364,7.27272727 C1.79454545,4.55654545 3.75818182,2.34181818 6.34181818,1.66545455 L6.34181818,1.66545455 Z M1.49636364,8.72727273 L4.38909091,8.72727273 C4.55454545,11.162 5.52727273,13.1054545 6.34,14.3327273 C3.75636364,13.6581818 1.79454545,11.4434545 1.49636364,8.72727273 L1.49636364,8.72727273 Z M9.66,14.3327273 C10.4727273,13.1054545 11.4454545,11.162 11.6107273,8.72727273 L14.5034545,8.72727273 C14.2054545,11.4434545 12.2436364,13.6581818 9.66,14.3327273 L9.66,14.3327273 Z" id="Shape"></path>
                    </g>
                </g>
            </g>
        </g>
    </g>
</svg>