<?xml version="1.0" encoding="UTF-8" standalone="no"?>
<svg width="18px" height="18px" viewBox="0 0 18 18" version="1.1" xmlns="http://www.w3.org/2000/svg" xmlns:xlink="http://www.w3.org/1999/xlink">
    <!-- Generator: sketchtool 3.8.3 (29802) - http://www.bohemiancoding.com/sketch -->
    <title>FECAB68A-81BC-4B88-A298-5EA7493F2544</title>
    <desc>Created with sketchtool.</desc>
    <defs></defs>
    <g id="Page-2" stroke="none" stroke-width="1" fill="none" fill-rule="evenodd">
        <g id="1-A-Mutual-Fund-Start" transform="translate(-711.000000, -599.000000)" fill="#96A9BB">
            <g id="help_icon" transform="translate(711.000000, 599.000000)">
                <path d="M9,18 C4.05,18 0,13.95 0,9 C0,4.05 4.05,0 9,0 C13.95,0 18,4.05 18,9 C18,13.95 13.95,18 9,18 L9,18 Z M9,1.5 C4.875,1.5 1.5,4.875 1.5,9 C1.5,13.125 4.875,16.5 9,16.5 C13.125,16.5 16.5,13.125 16.5,9 C16.5,4.875 13.125,1.5 9,1.5 L9,1.5 Z" id="Shape"></path>
                <path d="M9,12 C8.55,12 8.25,11.7 8.25,11.25 L8.25,10.725 C8.25,9.6 8.85,8.625 9.75,8.1 C10.35,7.8 10.65,7.125 10.5,6.525 C10.425,5.925 9.9,5.4 9.3,5.325 C8.85,5.25 8.4,5.325 8.025,5.625 C7.725,5.85 7.5,6.3 7.5,6.75 C7.5,7.2 7.2,7.5 6.75,7.5 C6.3,7.5 6,7.2 6,6.75 C6,5.85 6.375,5.025 7.05,4.425 C7.725,3.825 8.625,3.6 9.525,3.75 C10.725,3.975 11.7,4.95 11.925,6.15 C12.15,7.425 11.55,8.7 10.425,9.3 C9.975,9.525 9.75,10.05 9.75,10.65 L9.75,11.25 C9.75,11.7 9.45,12 9,12 L9,12 Z" id="Shape"></path>
                <circle id="Oval" cx="9" cy="13.5" r="0.75"></circle>
                <path d="M9,14.625 C8.4,14.625 7.875,14.1 7.875,13.5 C7.875,12.9 8.4,12.375 9,12.375 C9.6,12.375 10.125,12.9 10.125,13.5 C10.125,14.1 9.6,14.625 9,14.625 L9,14.625 Z M9,13.125 C8.775,13.125 8.625,13.275 8.625,13.5 C8.625,13.725 8.775,13.875 9,13.875 C9.225,13.875 9.375,13.725 9.375,13.5 C9.375,13.275 9.225,13.125 9,13.125 L9,13.125 Z" id="Shape"></path>
            </g>
        </g>
    </g>
</svg>