<?xml version="1.0" encoding="UTF-8" standalone="no"?>
<svg width="16px" height="16px" viewBox="0 0 16 16" version="1.1" xmlns="http://www.w3.org/2000/svg" xmlns:xlink="http://www.w3.org/1999/xlink">
    <!-- Generator: sketchtool 3.8.3 (29802) - http://www.bohemiancoding.com/sketch -->
    <title>62121CEE-EA78-45D8-B0A1-4BB7ADD201A4</title>
    <desc>Created with sketchtool.</desc>
    <defs></defs>
    <g id="Colors-edited" stroke="none" stroke-width="1" fill="none" fill-rule="evenodd">
        <g id="1-D-Mutual-Fund-Details" transform="translate(-982.000000, -925.000000)" fill="#BAC7CC">
            <g id="Fund-Growth-&amp;-Comparison" transform="translate(150.000000, 453.000000)">
                <g id="Performance" transform="translate(0.000000, 399.000000)">
                    <g id="table-title" transform="translate(0.000000, 60.000000)">
                        <g id="help" transform="translate(832.000000, 13.000000)">
                            <g id="Layer_1">
                                <g id="Group">
                                    <path d="M8,16 C3.6,16 0,12.4 0,8 C0,3.6 3.6,0 8,0 C12.4,0 16,3.6 16,8 C16,12.4 12.4,16 8,16 L8,16 Z M8,1.33333333 C4.33333333,1.33333333 1.33333333,4.33333333 1.33333333,8 C1.33333333,11.6666667 4.33333333,14.6666667 8,14.6666667 C11.6666667,14.6666667 14.6666667,11.6666667 14.6666667,8 C14.6666667,4.33333333 11.6666667,1.33333333 8,1.33333333 L8,1.33333333 Z" id="Shape"></path>
                                    <path d="M8,10.6666667 C7.6,10.6666667 7.33333333,10.4 7.33333333,10 L7.33333333,9.53333333 C7.33333333,8.53333333 7.86666667,7.66666667 8.66666667,7.2 C9.2,6.93333333 9.46666667,6.33333333 9.33333333,5.8 C9.26666667,5.26666667 8.8,4.8 8.26666667,4.73333333 C7.86666667,4.66666667 7.46666667,4.73333333 7.13333333,5 C6.86666667,5.2 6.66666667,5.6 6.66666667,6 C6.66666667,6.4 6.4,6.66666667 6,6.66666667 C5.6,6.66666667 5.33333333,6.4 5.33333333,6 C5.33333333,5.2 5.66666667,4.46666667 6.26666667,3.93333333 C6.86666667,3.4 7.66666667,3.2 8.46666667,3.33333333 C9.53333333,3.53333333 10.4,4.4 10.6,5.46666667 C10.8,6.6 10.2666667,7.73333333 9.26666667,8.26666667 C8.86666667,8.46666667 8.66666667,8.93333333 8.66666667,9.46666667 L8.66666667,10 C8.66666667,10.4 8.4,10.6666667 8,10.6666667 L8,10.6666667 Z" id="Shape"></path>
                                    <g transform="translate(6.666667, 10.666667)" id="Oval">
                                        <ellipse cx="1.33333333" cy="1.33333333" rx="0.666666667" ry="0.666666667"></ellipse>
                                    </g>
                                </g>
                            </g>
                        </g>
                    </g>
                </g>
            </g>
        </g>
    </g>
</svg>