<?xml version="1.0" encoding="UTF-8" standalone="no"?>
<svg width="24px" height="24px" viewBox="0 0 24 24" version="1.1" xmlns="http://www.w3.org/2000/svg" xmlns:xlink="http://www.w3.org/1999/xlink">
    <!-- Generator: sketchtool 3.8.3 (29802) - http://www.bohemiancoding.com/sketch -->
    <title>CAD255EE-F208-48BD-B1D9-D4A1AF2AF59C</title>
    <desc>Created with sketchtool.</desc>
    <defs></defs>
    <g id="Page-9" stroke="none" stroke-width="1" fill="none" fill-rule="evenodd">
        <g id="02---Time-Period-and-CTA" transform="translate(-1086.000000, -887.000000)" fill="#000000">
            <g id="Panel-1" transform="translate(0.000000, 700.000000)">
                <g id="Group-3" transform="translate(150.000000, 187.000000)">
                    <g id="icon_dummy_3" transform="translate(936.000000, 0.000000)">
                        <g id="Layer_1">
                            <g id="Group">
                                <path d="M12,24 C5.4,24 0,18.6 0,12 C0,5.4 5.4,0 12,0 C18.6,0 24,5.4 24,12 C24,18.6 18.6,24 12,24 L12,24 Z M12,2 C6.5,2 2,6.5 2,12 C2,17.5 6.5,22 12,22 C17.5,22 22,17.5 22,12 C22,6.5 17.5,2 12,2 L12,2 Z" id="Shape"></path>
                                <circle id="Oval" cx="7" cy="12" r="2"></circle>
                                <circle id="Oval" cx="12" cy="12" r="2"></circle>
                                <circle id="Oval" cx="17" cy="12" r="2"></circle>
                            </g>
                        </g>
                    </g>
                </g>
            </g>
        </g>
    </g>
</svg>