<?xml version="1.0" encoding="UTF-8" standalone="no"?>
<svg width="20px" height="15px" viewBox="0 0 20 15" version="1.1" xmlns="http://www.w3.org/2000/svg" xmlns:xlink="http://www.w3.org/1999/xlink">
    <!-- Generator: sketchtool 3.8.3 (29802) - http://www.bohemiancoding.com/sketch -->
    <title>95119746-1AFE-4298-B0D1-CDF56BE93B4D</title>
    <desc>Created with sketchtool.</desc>
    <defs></defs>
    <g id="Colors-edited" stroke="none" stroke-width="1" fill="none" fill-rule="evenodd">
        <g id="1-C-Mutual-Funds-Details" transform="translate(-1260.000000, -617.000000)" fill="#1F6DD1">
            <g id="Action-Window" transform="translate(1028.000000, 289.000000)">
                <g id="mail" transform="translate(232.000000, 328.000000)">
                    <path d="M16.25,0 L3.75,0 C1.6790625,0 0,1.6790625 0,3.75 L0,11.25 C0,13.3209375 1.6790625,15 3.75,15 L16.25,15 C18.3209375,15 20,13.3209375 20,11.25 L20,3.75 C20,1.6790625 18.3209375,0 16.25,0 L16.25,0 Z M18.75,11.25 C18.75,12.62875 17.62875,13.75 16.25,13.75 L3.75,13.75 C2.37125,13.75 1.25,12.62875 1.25,11.25 L1.25,3.75 C1.25,2.37125 2.37125,1.25 3.75,1.25 L16.25,1.25 C17.62875,1.25 18.75,2.37125 18.75,3.75 L18.75,11.25 L18.75,11.25 Z M13.01875,7.135625 L16.640625,4.23828125 C16.9098437,4.0221875 16.95375,3.62921875 16.7382812,3.359375 C16.5221875,3.09140625 16.1303125,3.04625 15.859375,3.26171875 L10,7.94984375 L4.140625,3.26171875 C3.87078125,3.04625 3.4778125,3.09140625 3.26171875,3.359375 C3.04625,3.62921875 3.09015625,4.0221875 3.359375,4.23828125 L6.980625,7.135625 L3.308125,10.808125 C3.06390625,11.0523437 3.06390625,11.4478125 3.308125,11.691875 C3.42984375,11.8139062 3.59015625,11.875 3.75,11.875 C3.90984375,11.875 4.06984375,11.8139062 4.191875,11.691875 L7.941875,7.941875 C7.94921875,7.93453125 7.95171875,7.92484375 7.95828125,7.9175 L9.609375,9.23828125 C9.7234375,9.32921875 9.86203125,9.375 10,9.375 C10.1379687,9.375 10.2765625,9.32921875 10.390625,9.23828125 L12.0415625,7.9175 C12.0482812,7.92484375 12.0507812,7.93453125 12.0579687,7.941875 L15.8079687,11.691875 C15.9301562,11.8139062 16.0901562,11.875 16.25,11.875 C16.4098437,11.875 16.5698437,11.8139062 16.691875,11.691875 C16.9360937,11.4476562 16.9360937,11.0521875 16.691875,10.808125 L13.01875,7.135625 L13.01875,7.135625 Z" id="Shape"></path>
                </g>
            </g>
        </g>
    </g>
</svg>