<?xml version="1.0" encoding="UTF-8" standalone="no"?>
<svg width="18px" height="16px" viewBox="0 0 18 16" version="1.1" xmlns="http://www.w3.org/2000/svg" xmlns:xlink="http://www.w3.org/1999/xlink">
    <!-- Generator: sketchtool 3.8.3 (29802) - http://www.bohemiancoding.com/sketch -->
    <title>02D3AF63-9C90-4BCD-A99D-5B2BF59EA2E0</title>
    <desc>Created with sketchtool.</desc>
    <defs></defs>
    <g id="Colors-edited" stroke="none" stroke-width="1" fill="none" fill-rule="evenodd">
        <g id="1-D-Mutual-Fund-Details" transform="translate(-1258.000000, -267.000000)" fill="#FFFFFF">
            <g id="Action-Window" transform="translate(1027.000000, 251.000000)">
                <g id="Add-to-Cart">
                    <g id="shopping-cart" transform="translate(231.000000, 16.000000)">
                        <g id="Group">
                            <path d="M15.2,8.8 L3.2,8.8 C2.72,8.8 2.4,8.48 2.4,8 L2.4,0.8 C2.4,0.32 2.72,0 3.2,0 L16.8,0 C17.04,0 17.28,0.08 17.44,0.32 C17.6,0.48 17.6,0.72 17.6,0.96 L16,8.16 C15.92,8.56 15.6,8.8 15.2,8.8 L15.2,8.8 Z M4,7.2 L14.56,7.2 L15.84,1.6 L4,1.6 L4,7.2 L4,7.2 Z" id="Shape"></path>
                            <path d="M3.2,1.6 L0.8,1.6 C0.32,1.6 0,1.28 0,0.8 C0,0.32 0.32,0 0.8,0 L3.2,0 C3.68,0 4,0.32 4,0.8 C4,1.28 3.68,1.6 3.2,1.6 L3.2,1.6 Z" id="Shape"></path>
                            <circle id="Oval" cx="4.8" cy="14.4" r="1.6"></circle>
                            <circle id="Oval" cx="13.6" cy="14.4" r="1.6"></circle>
                            <path d="M3.2,12 C2.72,12 2.4,11.68 2.4,11.2 L2.4,8 C2.4,7.52 2.72,7.2 3.2,7.2 C3.68,7.2 4,7.52 4,8 L4,11.2 C4,11.68 3.68,12 3.2,12 L3.2,12 Z" id="Shape"></path>
                            <path d="M15.2,12 L3.2,12 C2.72,12 2.4,11.68 2.4,11.2 C2.4,10.72 2.72,10.4 3.2,10.4 L15.2,10.4 C15.68,10.4 16,10.72 16,11.2 C16,11.68 15.68,12 15.2,12 L15.2,12 Z" id="Shape"></path>
                        </g>
                    </g>
                </g>
            </g>
        </g>
    </g>
</svg>