<?xml version="1.0" encoding="UTF-8" standalone="no"?>
<svg width="24px" height="25px" viewBox="0 0 24 25" version="1.1" xmlns="http://www.w3.org/2000/svg" xmlns:xlink="http://www.w3.org/1999/xlink">
    <!-- Generator: sketchtool 3.8.3 (29802) - http://www.bohemiancoding.com/sketch -->
    <title>B07F3EE6-18A1-44BF-8BB2-0CFC2335AA09</title>
    <desc>Created with sketchtool.</desc>
    <defs></defs>
    <g id="Page-2" stroke="none" stroke-width="1" fill="none" fill-rule="evenodd">
        <g id="1-A-Mutual-Fund-Start" transform="translate(-1323.000000, -21.000000)" fill="#00C6FF">
            <g id="topbar">
                <g id="Login" transform="translate(1323.000000, 21.000000)">
                    <path d="M12,0.887804878 C10.3609681,0.887804878 8.80976172,1.19999875 7.34634334,1.82439024 C5.88292121,2.44878174 4.60488304,3.30731208 3.51219512,4.4 C2.41950683,5.49268792 1.56097873,6.77072609 0.936585366,8.23414821 C0.312192,9.6975666 0,11.248773 0,12.8878049 C0,14.5268368 0.312192,16.0780432 0.936585366,17.5414615 C1.56097873,19.0048837 2.41950683,20.2829218 3.51219512,21.3756098 C4.60488304,22.4682981 5.88292121,23.3268261 7.34634334,23.9512195 C8.80976172,24.5756129 10.3609681,24.8878049 12,24.8878049 C13.6390319,24.8878049 15.1902383,24.5756129 16.6536567,23.9512195 C18.1170788,23.3268261 19.395117,22.4682981 20.4878049,21.3756098 C21.5804928,20.2829218 22.4390231,19.0048837 23.0634146,17.5414615 C23.6878061,16.0780432 24,14.5268368 24,12.8878049 C24,11.248773 23.6878061,9.6975666 23.0634146,8.23414821 C22.4390231,6.77072609 21.5804928,5.49268792 20.4878049,4.4 C19.395117,3.30731208 18.1170788,2.44878174 16.6536567,1.82439024 C15.1902383,1.19999875 13.6390319,0.887804878 12,0.887804878 L12,0.887804878 Z M12,1.88292683 C13.5219587,1.88292683 14.9463365,2.17560601 16.2731707,2.76097561 C17.600005,3.34634521 18.7707255,4.12682427 19.7853659,5.10243902 C20.7609806,6.11707941 21.5414597,7.28779988 22.1268293,8.61463415 C22.7121989,9.94146841 23.004878,11.3658462 23.004878,12.8878049 C23.004878,13.551222 22.9463415,14.2048762 22.8292683,14.8487786 C22.7121951,15.4926848 22.5365854,16.1073133 22.302439,16.6926829 C22.1073146,17.2780525 21.8439056,17.8438999 21.512197,18.3902439 C21.1804847,18.9365879 20.8195134,19.4438987 20.4292683,19.9121951 C20.1560963,19.795122 19.8048805,19.6585378 19.3756098,19.502439 C18.946339,19.3463402 18.47805,19.1707342 17.9707317,18.9756098 C17.5024353,18.8195109 17.0146354,18.6634159 16.5073171,18.5073171 C15.9999988,18.3512183 15.5512208,18.2146341 15.1609756,18.097561 C15.0829281,18.0585353 15.034147,18.009758 15.0146323,17.9512214 C14.9951213,17.8926811 14.9853659,17.7268305 14.9853659,17.4536585 C14.9853659,17.2195122 15.0243915,16.9853659 15.102439,16.7512195 C15.1804866,16.5170732 15.2780488,16.3024415 15.395122,16.1073171 C15.4731695,15.9121926 15.5707317,15.6390244 15.6878049,15.2878049 C15.804878,14.9365854 15.8829256,14.6048805 15.9219512,14.2926829 C16.0390244,14.1365841 16.1756085,13.912197 16.3317073,13.6195141 C16.4878061,13.3268274 16.6048793,12.9268305 16.6829268,12.4195122 C16.8,11.9512158 16.8487811,11.6097555 16.8292702,11.3951238 C16.8097555,11.1804884 16.7609744,10.9756123 16.6829268,10.7804878 C16.6829268,10.7804878 16.6731714,10.7707323 16.6536567,10.7512176 C16.6341457,10.7317067 16.6243902,10.7219512 16.6243902,10.7219512 C16.6243902,10.604878 16.6341457,10.3121989 16.6536567,9.84390244 C16.6731714,9.37560601 16.7219525,8.90732082 16.8,8.43902439 C16.8780475,8.16585241 16.8585366,7.74634459 16.7414634,7.18048968 C16.6243902,6.61463102 16.370733,6.05853908 15.9804878,5.51219512 C15.824389,5.35609631 15.648783,5.1804903 15.4536585,4.98536585 C15.2585341,4.7902414 15.0243915,4.63414634 14.7512195,4.51707317 C14.4780475,4.36097436 14.1658537,4.22439024 13.8146341,4.10731707 C13.4634146,3.9902439 13.0536623,3.91219637 12.5853659,3.87317073 L11.5902439,3.87317073 C11.1219475,3.91219637 10.7121951,3.9902439 10.3609756,4.10731707 C10.0097561,4.22439024 9.69756222,4.36097436 9.42439024,4.51707317 C9.15121826,4.63414634 8.91707567,4.7902414 8.72195122,4.98536585 C8.52682677,5.1804903 8.37073171,5.35609631 8.25365854,5.51219512 C7.82438775,6.05853908 7.56097499,6.61463102 7.46341651,7.18048968 C7.36585428,7.74634459 7.33658412,8.16585241 7.37560976,8.43902439 C7.45365729,8.90732082 7.51219387,9.37560601 7.55121951,9.84390244 C7.59024515,10.3121989 7.59024515,10.604878 7.55121951,10.7219512 L7.55121951,10.7512176 C7.55121951,10.7707323 7.53170857,10.7804878 7.49268293,10.7804878 C7.45365729,10.9756123 7.42439087,11.1804884 7.40487618,11.3951238 C7.38536523,11.6097555 7.4146354,11.9512158 7.49268293,12.4195122 C7.6097561,12.9268305 7.73658474,13.3268274 7.87316886,13.6195141 C8.00975672,13.912197 8.13658537,14.1365841 8.25365854,14.2926829 C8.29268418,14.6048805 8.37073171,14.9365854 8.48780488,15.2878049 C8.60487805,15.6390244 8.70244027,15.9121926 8.7804878,16.1073171 C8.85853534,16.2634159 8.91707192,16.4585366 8.95609756,16.6926829 C8.9951232,16.9268293 9.01463415,17.1804866 9.01463415,17.4536585 C9.01463415,17.7658562 9.00487867,17.9414622 8.98536773,17.9804878 C8.96585303,18.0195134 8.93658661,18.0585353 8.89756098,18.097561 C8.46829019,18.2146341 8.00000125,18.3609737 7.49268293,18.5365872 C6.9853646,18.712197 6.47805003,18.8780475 5.97073171,19.0341463 C5.50243528,19.2292708 5.05366103,19.4048768 4.62439024,19.5609756 C4.19511945,19.7170744 3.86341463,19.8536585 3.62926829,19.9707317 C3.19999788,19.5024353 2.82926967,18.9951244 2.51707317,18.4487805 C2.2048763,17.9024365 1.93170844,17.3170744 1.69756098,16.6926829 C1.46341351,16.1073133 1.28780563,15.4926848 1.17073171,14.8487786 C1.05365779,14.2048762 0.995121951,13.551222 0.995121951,12.8878049 C0.995121951,11.3658462 1.28780188,9.94146841 1.87317073,8.61463415 C2.45853958,7.28779988 3.2390194,6.11707941 4.21463415,5.10243902 C5.22927454,4.12682427 6.399995,3.34634521 7.72682927,2.76097561 C9.05366353,2.17560601 10.4780413,1.88292683 12,1.88292683 L12,1.88292683 Z M4.33170732,20.7317073 C4.6048793,20.6146341 4.94633959,20.4878055 5.35609943,20.3512176 C5.76585553,20.2146335 6.18536336,20.0682939 6.61463415,19.9121951 C7.04390494,19.7560963 7.48292371,19.6000012 7.93170919,19.4439024 C8.38049093,19.2878036 8.79999875,19.1512195 9.1902439,19.0341463 C9.61951469,18.9170732 9.86341276,18.7024415 9.92195309,18.3902439 C9.98048968,18.0780463 10.0097561,17.7658562 10.0097561,17.4536585 C10.0097561,17.2195122 10.0000006,16.946344 9.98048593,16.6341463 C9.96097499,16.3219487 9.87317198,16.0097586 9.71707317,15.697561 C9.6,15.5024365 9.50243778,15.248783 9.42439024,14.9365854 C9.34634271,14.6243877 9.28780613,14.3121976 9.24878049,14 C9.24878049,13.9609744 9.22926954,13.912197 9.1902439,13.8536604 C9.15121826,13.7951201 9.11219637,13.7463427 9.07317073,13.7073171 C8.9951232,13.6292695 8.89756098,13.4731707 8.7804878,13.2390244 C8.66341463,13.004878 8.56585241,12.6536623 8.48780488,12.1853659 C8.40975735,11.8341463 8.37073171,11.6 8.37073171,11.4829268 C8.37073171,11.3658537 8.39024265,11.2682914 8.42926829,11.1902439 C8.46829393,11.1512183 8.48780488,11.1121964 8.48780488,11.0731707 L8.48780488,10.9560976 C8.56585241,10.7609731 8.5853671,10.3707355 8.54634146,9.78536585 C8.50731582,9.19999625 8.44877924,8.69268542 8.37073171,8.26341463 C8.33170607,8.10731582 8.35122076,7.81463664 8.42926829,7.38536585 C8.50731582,6.95609506 8.70243653,6.52683177 9.01463415,6.09756098 C9.17073296,5.94146217 9.33658349,5.7853671 9.51219325,5.62926829 C9.68780675,5.47316948 9.89268293,5.35609631 10.1268293,5.27804878 C10.3219537,5.16097561 10.5463408,5.0731726 10.7999981,5.01463227 C11.0536592,4.95609569 11.3170719,4.90731832 11.5902439,4.86829268 L12.5268293,4.86829268 C12.8390269,4.90731832 13.1219506,4.95609569 13.3756079,5.01463227 C13.6292689,5.0731726 13.8731707,5.16097561 14.1073171,5.27804878 C14.3024415,5.35609631 14.4975585,5.47316948 14.6926829,5.62926829 C14.8878074,5.7853671 15.0439024,5.94146217 15.1609756,6.09756098 C15.5121951,6.52683177 15.7170713,6.95609506 15.7756116,7.38536585 C15.8341482,7.81463664 15.8634146,8.10731582 15.8634146,8.26341463 C15.7853671,8.69268542 15.717075,9.19999625 15.6585385,9.78536585 C15.5999981,10.3707355 15.6097573,10.7609731 15.6878049,10.9560976 C15.6878049,10.9951232 15.6975604,11.0341451 15.7170713,11.0731707 C15.736586,11.1121964 15.7463415,11.1512183 15.7463415,11.1902439 C15.7853671,11.2682914 15.8146335,11.3658537 15.8341445,11.4829268 C15.8536592,11.6 15.824389,11.8341463 15.7463415,12.1853659 C15.6292683,12.6536623 15.5121951,13.004878 15.395122,13.2390244 C15.2780488,13.4731707 15.1804866,13.6292695 15.102439,13.7073171 C15.0634134,13.7463427 15.0243915,13.7951201 14.9853659,13.8536604 C14.9463402,13.912197 14.9268293,13.9609744 14.9268293,14 C14.9268293,14.3121976 14.8780482,14.6243877 14.7804859,14.9365854 C14.6829275,15.248783 14.5756098,15.5024365 14.4585366,15.697561 C14.3804891,15.9317073 14.2829268,16.1951201 14.1658537,16.487803 C14.0487805,16.7804897 13.9902439,17.102439 13.9902439,17.4536585 C13.9902439,17.7268305 14.0292695,18.0195097 14.1073171,18.3317073 C14.1853646,18.6439049 14.4390219,18.8780475 14.8682927,19.0341463 C15.2195122,19.1512195 15.6195091,19.2780482 16.0682908,19.4146323 C16.5170763,19.5512201 16.9560951,19.6975597 17.3853659,19.8536585 C17.8146366,20.0097573 18.2341445,20.1560969 18.6439006,20.2926848 C19.0536604,20.4292689 19.4146316,20.5560976 19.7268293,20.6731707 C19.2195109,21.1804902 18.6731745,21.6292663 18.0878049,22.0195122 C17.5024353,22.4097581 16.8975622,22.7414622 16.2731707,23.0146341 C15.6097536,23.2878061 14.9170775,23.5024382 14.1951201,23.6585366 C13.4731664,23.814635 12.7414684,23.8926829 12,23.8926829 C11.2585316,23.8926829 10.5365891,23.814635 9.83414634,23.6585366 C9.13170357,23.5024382 8.44878299,23.2878061 7.78536585,23.0146341 C7.12194872,22.7414622 6.5073202,22.4195139 5.94146529,22.0487805 C5.37560663,21.678047 4.83902564,21.2390268 4.33170732,20.7317073 L4.33170732,20.7317073 Z" id="user"></path>
                </g>
            </g>
        </g>
    </g>
</svg>